<?xml version="1.0" standalone="no"?>
<svg xmlns:xlink="http://www.w3.org/1999/xlink" id="wave" style="transform:rotate(0deg); transition: 0.3s" viewBox="0 0 1440 230" version="1.1" xmlns="http://www.w3.org/2000/svg"><defs><linearGradient id="sw-gradient-0" x1="0" x2="0" y1="1" y2="0"><stop stop-color="rgba(62, 151.031, 243, 1)" offset="0%"/><stop stop-color="rgba(11, 197.143, 255, 1)" offset="100%"/></linearGradient></defs><path style="transform:translate(0, 0px); opacity:1" fill="url(#sw-gradient-0)" d="M0,115L48,103.5C96,92,192,69,288,76.7C384,84,480,123,576,130.3C672,138,768,115,864,122.7C960,130,1056,169,1152,168.7C1248,169,1344,130,1440,122.7C1536,115,1632,138,1728,157.2C1824,176,1920,192,2016,164.8C2112,138,2208,69,2304,65.2C2400,61,2496,123,2592,126.5C2688,130,2784,77,2880,65.2C2976,54,3072,84,3168,80.5C3264,77,3360,38,3456,38.3C3552,38,3648,77,3744,95.8C3840,115,3936,115,4032,111.2C4128,107,4224,100,4320,103.5C4416,107,4512,123,4608,141.8C4704,161,4800,184,4896,161C4992,138,5088,69,5184,65.2C5280,61,5376,123,5472,130.3C5568,138,5664,92,5760,72.8C5856,54,5952,61,6048,88.2C6144,115,6240,161,6336,172.5C6432,184,6528,161,6624,149.5C6720,138,6816,138,6864,138L6912,138L6912,230L6864,230C6816,230,6720,230,6624,230C6528,230,6432,230,6336,230C6240,230,6144,230,6048,230C5952,230,5856,230,5760,230C5664,230,5568,230,5472,230C5376,230,5280,230,5184,230C5088,230,4992,230,4896,230C4800,230,4704,230,4608,230C4512,230,4416,230,4320,230C4224,230,4128,230,4032,230C3936,230,3840,230,3744,230C3648,230,3552,230,3456,230C3360,230,3264,230,3168,230C3072,230,2976,230,2880,230C2784,230,2688,230,2592,230C2496,230,2400,230,2304,230C2208,230,2112,230,2016,230C1920,230,1824,230,1728,230C1632,230,1536,230,1440,230C1344,230,1248,230,1152,230C1056,230,960,230,864,230C768,230,672,230,576,230C480,230,384,230,288,230C192,230,96,230,48,230L0,230Z"/><defs><linearGradient id="sw-gradient-1" x1="0" x2="0" y1="1" y2="0"><stop stop-color="rgba(62, 181.687, 243, 1)" offset="0%"/><stop stop-color="rgba(11, 246.735, 255, 1)" offset="100%"/></linearGradient></defs><path style="transform:translate(0, 50px); opacity:0.9" fill="url(#sw-gradient-1)" d="M0,138L48,138C96,138,192,138,288,145.7C384,153,480,169,576,157.2C672,146,768,107,864,80.5C960,54,1056,38,1152,49.8C1248,61,1344,100,1440,130.3C1536,161,1632,184,1728,161C1824,138,1920,69,2016,38.3C2112,8,2208,15,2304,46C2400,77,2496,130,2592,138C2688,146,2784,107,2880,107.3C2976,107,3072,146,3168,153.3C3264,161,3360,138,3456,122.7C3552,107,3648,100,3744,95.8C3840,92,3936,92,4032,80.5C4128,69,4224,46,4320,53.7C4416,61,4512,100,4608,99.7C4704,100,4800,61,4896,53.7C4992,46,5088,69,5184,76.7C5280,84,5376,77,5472,72.8C5568,69,5664,69,5760,72.8C5856,77,5952,84,6048,103.5C6144,123,6240,153,6336,168.7C6432,184,6528,184,6624,176.3C6720,169,6816,153,6864,145.7L6912,138L6912,230L6864,230C6816,230,6720,230,6624,230C6528,230,6432,230,6336,230C6240,230,6144,230,6048,230C5952,230,5856,230,5760,230C5664,230,5568,230,5472,230C5376,230,5280,230,5184,230C5088,230,4992,230,4896,230C4800,230,4704,230,4608,230C4512,230,4416,230,4320,230C4224,230,4128,230,4032,230C3936,230,3840,230,3744,230C3648,230,3552,230,3456,230C3360,230,3264,230,3168,230C3072,230,2976,230,2880,230C2784,230,2688,230,2592,230C2496,230,2400,230,2304,230C2208,230,2112,230,2016,230C1920,230,1824,230,1728,230C1632,230,1536,230,1440,230C1344,230,1248,230,1152,230C1056,230,960,230,864,230C768,230,672,230,576,230C480,230,384,230,288,230C192,230,96,230,48,230L0,230Z"/><defs><linearGradient id="sw-gradient-2" x1="0" x2="0" y1="1" y2="0"><stop stop-color="rgba(62, 175.556, 243, 1)" offset="0%"/><stop stop-color="rgba(11, 64.897, 255, 1)" offset="100%"/></linearGradient></defs><path style="transform:translate(0, 100px); opacity:0.8" fill="url(#sw-gradient-2)" d="M0,23L48,38.3C96,54,192,84,288,84.3C384,84,480,54,576,57.5C672,61,768,100,864,107.3C960,115,1056,92,1152,92C1248,92,1344,115,1440,103.5C1536,92,1632,46,1728,34.5C1824,23,1920,46,2016,72.8C2112,100,2208,130,2304,118.8C2400,107,2496,54,2592,30.7C2688,8,2784,15,2880,30.7C2976,46,3072,69,3168,95.8C3264,123,3360,153,3456,145.7C3552,138,3648,92,3744,88.2C3840,84,3936,123,4032,115C4128,107,4224,54,4320,34.5C4416,15,4512,31,4608,53.7C4704,77,4800,107,4896,134.2C4992,161,5088,184,5184,180.2C5280,176,5376,146,5472,134.2C5568,123,5664,130,5760,118.8C5856,107,5952,77,6048,57.5C6144,38,6240,31,6336,26.8C6432,23,6528,23,6624,23C6720,23,6816,23,6864,23L6912,23L6912,230L6864,230C6816,230,6720,230,6624,230C6528,230,6432,230,6336,230C6240,230,6144,230,6048,230C5952,230,5856,230,5760,230C5664,230,5568,230,5472,230C5376,230,5280,230,5184,230C5088,230,4992,230,4896,230C4800,230,4704,230,4608,230C4512,230,4416,230,4320,230C4224,230,4128,230,4032,230C3936,230,3840,230,3744,230C3648,230,3552,230,3456,230C3360,230,3264,230,3168,230C3072,230,2976,230,2880,230C2784,230,2688,230,2592,230C2496,230,2400,230,2304,230C2208,230,2112,230,2016,230C1920,230,1824,230,1728,230C1632,230,1536,230,1440,230C1344,230,1248,230,1152,230C1056,230,960,230,864,230C768,230,672,230,576,230C480,230,384,230,288,230C192,230,96,230,48,230L0,230Z"/></svg>